<?xml version="1.0" encoding="UTF-8"?>
<svg xmlns="http://www.w3.org/2000/svg" version="1.1" viewBox="0 0 2000 2000">
  <defs>
    <style>
      .cls-1 {
        fill: #d36135;
      }
    </style>
  </defs>
  <!-- Generator: Adobe Illustrator 28.7.1, SVG Export Plug-In . SVG Version: 1.2.0 Build 142)  -->
  <g>
    <g id="Lager_1">
      <g id="Lager_1-2" data-name="Lager_1">
        <path class="cls-1" d="M970.05,1956.26c-8.96-2.09-17.95-4.06-26.87-6.28-115.17-28.69-186.28-101.43-216.51-215.66-1.89-7.13-8.13-15.64-14.6-18.64-68.71-31.79-102.72-85.62-104.24-160.62-.99-48.52,1.3-97.29-2.75-145.54-8.13-96.8-49.14-179.91-112.26-253.1-113.34-131.43-166.84-284.53-165.07-457.85,2.62-256.17,167.97-502.19,404.58-600.4,320.87-133.18,675.56-15.67,850.73,283.8,75.98,129.9,102.1,270.95,82.76,420.44-16.99,131.31-68.93,247.04-153.86,348.11-43.21,51.43-81.38,106.27-98.52,171.74-11.08,42.32-16.5,86.46-20.68,130.14-3.25,33.93-.13,68.42-.76,102.65-1.38,75.01-35.46,128.89-104.22,160.56-6.15,2.84-12.54,10.33-14.27,16.86-32.68,123.57-110.23,198.51-237.01,220.89-2.32.41-4.46,1.9-6.68,2.88h-59.76v.02ZM1281.44,1391.33c6.68-29.9,12.08-59.17,19.84-87.81,24.44-90.2,75.79-164.86,133.72-236.78,103.8-128.87,142.58-276.68,117.21-440.45-18.39-118.72-70.56-221.58-155.93-305.37-126.2-123.85-279.47-180.03-455.46-161.09-211.41,22.74-366.77,133.46-451.47,327.34-93.4,213.79-60.11,415.99,88.95,596.56,54.21,65.68,97.37,136.58,120.15,218.9,8.05,29.09,13.41,58.93,20.06,88.7h562.95-.02ZM1280.03,1505.43h-560.22c0,17.22-.16,33.29.03,49.36.46,38.77,22.81,61.25,61.64,61.46,49.12.26,98.24.07,147.36.07,97,0,194,.18,290.99-.11,36.6-.11,59.43-22.96,60.14-59.16.33-16.72.06-33.45.06-51.62h0ZM1155.23,1729.74h-311.82c24.96,70.55,94.34,118.28,163.99,114.03,67.98-4.15,134.62-55.62,147.84-114.03h-.01Z"/>
        <path class="cls-1" d="M1956.07,787.02c-14.88,32.25-40.41,43.64-75.11,41.47-29.7-1.85-59.62-.09-89.43-.47-34.69-.44-59.43-24.06-59.42-56.01.01-32,24.75-55.5,59.47-55.89,29.81-.34,59.74,1.51,89.42-.49,34.88-2.35,60.15,9.36,75.06,41.5v29.88h.01Z"/>
        <path class="cls-1" d="M188.51,531.72c-6.91-3.56-21.88-7.88-32.27-17.27-27.19-24.58-52.86-50.91-78.22-77.43-23.46-24.53-23.37-58.11-1.22-80.36,22.03-22.12,55.87-22.06,80.27,1.44,26.88,25.88,53.28,52.29,78.96,79.36,16.47,17.36,19.8,38.5,10.15,60.56-9.37,21.42-26.81,31.86-57.68,33.7h.01Z"/>
        <path class="cls-1" d="M1878.5,340.03c26.96,1.37,43.93,10.5,54.08,29.75,10.43,19.79,11.23,41.5-3.69,57.9-29.65,32.59-60.82,64.04-93.63,93.44-19.39,17.38-51.31,12.53-69.92-5.8-19.27-18.98-24.2-51.26-6.16-71.34,29.44-32.77,61.4-63.37,93.59-93.49,7.45-6.97,20.15-8.33,25.72-10.46h.01Z"/>
        <path class="cls-1" d="M251.78,1076.32c-3.82,7.13-8.47,21.93-17.95,32.33-24.7,27.09-51.05,52.73-77.62,78.03-23.7,22.57-57.14,22.46-78.91,1.18-21.97-21.47-23.17-55.18-.9-78.85,25.99-27.62,53.03-54.29,80.43-80.52,17.87-17.09,39.49-20.53,62.13-10.25,21.33,9.69,31.11,27.59,32.82,58.08h0Z"/>
        <path class="cls-1" d="M1939.81,1142.03c-1.48,28.44-11.19,45.77-31.43,55.63-20.05,9.76-41.36,9.54-57.8-5.56-31.1-28.57-61.31-58.32-89.67-89.59-19.55-21.56-15.62-54.61,4.96-74.32,19.97-19.13,52.21-21.86,73.06-2.7,30.64,28.16,59.84,57.99,88.12,88.53,7.8,8.43,10.12,21.92,12.76,28.02h0Z"/>
        <path class="cls-1" d="M155.74,716.11c18.67,0,37.36-.46,56.02.1,32.02.97,55.93,25.1,55.98,55.74.05,30.62-23.74,55.23-55.8,55.9-37.33.78-74.7.76-112.03,0-32.11-.65-55.93-25.12-55.98-55.73-.05-30.65,23.83-54.91,55.8-55.91,18.65-.59,37.34-.11,56.02-.11h0Z"/>
        <path class="cls-1" d="M1016.88,267.92c207.61,9.71,380.05,155.79,422,359.06,5.5,26.66,7.29,54.27,8.74,81.54,1.93,36.19-21.07,62.26-53.63,63.4-32.51,1.14-56.66-23.42-57.95-59.62-4-112.29-50.44-202.55-140.9-269.26-52.39-38.64-111.97-58.54-176.88-62.55-8.07-.5-16.23-.19-24.24-1.16-29.67-3.58-51.04-28.45-49.96-57.68,1.08-29.17,24.4-52.37,54.17-53.7,6.21-.28,12.44-.04,18.66-.04h-.01Z"/>
      </g>
    </g>
  </g>
</svg>