<?xml version="1.0" encoding="UTF-8"?>
<svg xmlns="http://www.w3.org/2000/svg" version="1.1" viewBox="0 0 2000 2000">
  <defs>
    <style>
      .cls-1 {
        fill: #d36135;
      }
    </style>
  </defs>
  <!-- Generator: Adobe Illustrator 28.7.1, SVG Export Plug-In . SVG Version: 1.2.0 Build 142)  -->
  <g>
    <g id="Lager_1">
      <g>
        <path class="cls-1" d="M1016.65,1953.64h-29.75c-5.41-2.6-10.66-5.64-16.25-7.75-289.53-108.76-579.09-217.43-868.65-326.11-43.34-16.27-52.09-28.67-52.09-74.04,0-363.2,0-726.39,0-1089.59,0-43.01,9.77-56.92,49.85-71.94C388.75,275.87,677.8,167.7,966.55,58.74c24.19-9.13,45.7-9.51,69.8-.42,287.68,108.45,575.53,216.45,863.56,323.99,24.44,9.13,44.48,21.03,53.73,46.58v1145.42c-8.8,22.87-25.41,36.16-48.42,44.74-245.74,91.6-491.29,183.73-736.81,275.94-50.77,19.07-101.18,39.08-151.75,58.65ZM1737.06,1561.76c-8.36-3.39-13.43-5.58-18.59-7.52-230.35-86.4-460.79-172.58-690.93-259.55-18.07-6.83-33.11-6.88-51.16-.05-219.15,82.81-438.61,164.81-657.97,247.07-16.13,6.05-32.12,12.46-51.27,19.91,12.23,4.91,20.72,8.53,29.36,11.77,228.11,85.57,456.28,170.97,684.25,256.92,14.85,5.6,27.44,5.74,42.32.12,211.69-79.9,423.58-159.23,635.42-238.74,25.29-9.49,50.49-19.22,78.58-29.93ZM162.25,1480.02c8.76-2.96,15.75-5.1,22.59-7.66,247.83-92.91,495.6-186,743.6-278.45,14.17-5.28,17.82-12.2,17.79-26.69-.49-226.75-.35-453.5-.35-680.25v-20.47c-262.89,98.58-523.21,196.19-783.63,293.85v719.67ZM1225.44,1249.56c0-10.35,0-17.61,0-24.86,0-156.79,1.13-313.59-.69-470.35-.55-47.43,36.89-81.45,88.33-60.5,82.45,33.58,166.49,63.25,249.87,94.53,47.28,17.74,54.99,28.84,54.99,79.7,0,170.42.14,340.84-.28,511.26-.03,13.13,3.67,19.38,16.48,24,64.58,23.3,128.73,47.8,193.06,71.78,4.27,1.59,8.83,2.41,14.12,3.82v-718.67c-260.55-97.73-521.1-195.46-783.14-293.75v720.37c54.93,20.59,109.72,41.12,167.24,62.68ZM1841.83,640.65c0-49.3-.67-95.73.39-142.11.33-14.45-4.99-20.23-17.79-25.01-249.62-93.17-499.08-186.78-748.57-280.3-5.51-2.07-11.05-4.05-18.21-6.67,0,48.47.76,94.3-.42,140.07-.41,15.66,4.87,22.23,19.23,27.57,184.82,68.75,369.39,138.19,554.04,207.42,69.38,26.01,138.8,51.91,211.33,79.03ZM945.88,186.77c-8.07,2.96-13.25,4.83-18.4,6.76-110.58,41.4-221.16,82.78-331.72,124.23-139.49,52.29-279,104.54-418.32,157.3-6.17,2.34-14.9,9.42-15.01,14.46-1.13,49.46-.68,98.95-.68,150.88,9.75-3.44,17.79-6.13,25.73-9.11,149.34-56,298.65-112.07,447.99-168.06,97.81-36.67,195.69-73.2,293.47-109.96,8.1-3.04,17.52-3.8,17.28-17.48-.86-48.88-.34-97.78-.34-149.02ZM1504.51,1354.09c.66-5.76,1.19-8.19,1.19-10.61.05-147.99-.06-295.98.32-443.96.03-10.91-4.49-14.82-13.81-18.23-41.21-15.05-82.13-30.91-123.21-46.32-9.6-3.6-19.42-6.61-28.92-9.82-1.35,2.85-2.31,3.93-2.31,5.01-.15,150.46-.29,300.92,0,451.39,0,4.36,3.72,11.27,7.37,12.68,52.31,20.15,104.9,39.56,159.37,59.88Z"/>
        <path class="cls-1" d="M273.6,1057.01c0-44-.14-87.99.05-131.99.14-33.08,12.05-50.34,42.86-61.92,144.71-54.41,289.42-108.8,434.22-162.95,47.59-17.8,83.19,7.11,83.28,57.99.16,87.37.1,174.74.01,262.12-.04,35.36-11.52,52.44-44.41,64.8-144.18,54.17-288.39,108.26-432.69,162.1-47.57,17.75-83.08-7.25-83.29-58.16-.18-44-.04-87.99-.04-131.99ZM722.05,831.98c-4.76,1.06-7.78,1.38-10.53,2.41-104.81,39.3-209.66,78.51-314.2,118.53-5.31,2.03-10.96,11.14-11.2,17.16-1.15,29.7-.53,59.48-.53,89.23,0,18.24,0,36.48,0,53.92,3.43.88,4.1,1.31,4.56,1.14,107.8-40.1,215.62-80.18,323.28-120.66,3.64-1.37,8.21-6.7,8.25-10.22.54-50.02.37-100.06.37-151.49Z"/>
      </g>
    </g>
  </g>
</svg>