<?xml version="1.0" encoding="UTF-8"?>
<svg xmlns="http://www.w3.org/2000/svg" version="1.1" viewBox="0 0 2000 2000">
  <defs>
    <style>
      .cls-1 {
        fill: #d36135;
      }
    </style>
  </defs>
  <!-- Generator: Adobe Illustrator 28.7.1, SVG Export Plug-In . SVG Version: 1.2.0 Build 142)  -->
  <g>
    <g id="Lager_1">
      <g>
        <path class="cls-1" d="M1175.93,49.03c2.21,1.01,4.33,2.42,6.66,2.98,66.85,16.02,108.02,60.39,119.05,128.3,4.95,30.46,9.89,60.93,15.16,91.34,12.39,71.5,80.12,111.79,148.91,88.08,30.91-10.65,61.21-23.04,91.91-34.31,74.51-27.35,146.34-1.94,186.41,66.75,51.02,87.46,101.63,175.16,151.88,263.06,39.2,68.57,26.08,142.59-33.78,193.53-24.94,21.22-50.77,41.4-75.67,62.67-56.53,48.3-56.39,125.65.31,174.06,25.37,21.67,51.73,42.19,77.06,63.9,57.35,49.13,71.06,123.43,33.74,189.15-51.21,90.19-103.02,180.06-155.62,269.45-37.68,64.03-109.28,89.4-179.5,64.92-31.45-10.97-62.33-23.58-93.68-34.84-71.64-25.74-139.34,14.04-152.28,89.12-5.97,34.67-11.05,69.53-18.2,103.96-13.85,66.73-71.88,115.49-139.99,116.11-106.93.97-213.87,1.04-320.8-.01-73.26-.72-130.8-54.42-143.29-130.54-5-30.46-9.93-60.93-15.16-91.34-12.32-71.7-79.9-112.21-148.56-88.55-30.91,10.65-61.22,23-91.93,34.25-74.8,27.41-146.58,2.21-186.55-66.29-51.34-87.98-102.36-176.16-152.87-264.63-38.48-67.41-24.96-141.67,34.22-191.97,24.95-21.21,50.76-41.41,75.69-62.65,56.65-48.26,56.78-126.01.29-174.1-25.4-21.63-51.71-42.2-77.06-63.89-57.54-49.23-71.45-123.46-34.22-189.05,51.2-90.2,103.05-180.04,155.58-269.48,38-64.69,110.2-90.06,181.09-64.9,30.81,10.94,61.14,23.25,91.9,34.34,71.66,25.84,139.73-13.78,152.6-88.61,5.13-29.81,10.09-59.65,14.93-89.5,11.01-67.91,52.07-112.18,119.06-128.3,2.33-.56,4.45-1.96,6.67-2.97,118.68,0,237.37,0,356.05,0ZM842.02,1798.32h311.93c5-29.99,10.25-59.13,14.67-88.39,23.62-156.4,165.19-256.67,316.04-221.3,39.38,9.23,77.09,25.9,115.11,40.35,11.3,4.29,16.09,1.97,21.65-8.06,18.86-34,38.73-67.44,58.17-101.12,29.88-51.79,59.73-103.6,89.97-156.06-25.09-20.7-49.32-40.76-73.63-60.73-133.88-109.97-133.6-299.84.59-409.9,24.26-19.89,48.39-39.93,73.12-60.35-50.66-87.69-100.79-174.16-150.48-260.88-5.31-9.27-10.72-7.21-18.25-4.36-31.74,11.98-63.29,24.61-95.54,35.04-147.86,47.85-305.44-46.17-333.35-198.49-6.43-35.12-12.19-70.36-18.35-106.03h-311.77c-5,30.05-10.24,59.71-14.83,89.47-24.07,156.18-166.33,256.17-316.85,220.32-38.76-9.23-75.87-25.72-113.31-39.97-11.77-4.48-16.93-2.01-23.01,8.66-47.1,82.57-94.88,164.74-142.4,247.07-1.75,3.02-2.94,6.37-4.53,9.86,25.07,20.68,49.34,40.74,73.65,60.73,132.12,108.67,132.49,299.03.77,407.66-24.75,20.41-49.51,40.81-73.91,60.93.46,2.17.42,3.51.99,4.5,49.28,85.58,98.72,171.08,147.78,256.8,4.9,8.56,9.71,8.61,17.94,5.39,28.71-11.25,57.63-22.03,86.66-32.45,151.17-54.28,314.01,39.01,343.06,196.57,6.37,34.57,12,69.27,18.11,104.74Z"/>
        <path class="cls-1" d="M1363.83,988.79c-8.07-204.67-177.85-365.22-376.83-356.33-204.21,9.12-363.17,177.59-355.02,376.26,8.35,203.71,177.6,363.76,375.88,355.45,204.18-8.55,363.79-176.86,355.97-375.38ZM997.71,1216.12c-118.67-.13-217.06-98.29-217.62-217.09-.55-119.22,98.67-218.69,218-218.53,118.78.17,217,98.13,217.62,217.06.62,119.18-98.64,218.69-218,218.56Z"/>
      </g>
    </g>
  </g>
</svg>